<svg xmlns="http://www.w3.org/2000/svg" viewBox="170 237 1555 317" fill="none" role="img" aria-label="SourceAnt">
<g stroke="#E20C18" stroke-width="7" stroke-linecap="round">
<line x1="582" y1="317" x2="615.1" y2="253.4"/>
<line x1="605" y1="325" x2="681.5" y2="270.8"/>
<line x1="538.2" y1="360.3" x2="486.6" y2="358.8"/>
<line x1="424.4" y1="401.9" x2="331.9" y2="358.1"/>
<line x1="229.3" y1="409.7" x2="331.9" y2="358.1"/>
<line x1="424.4" y1="401.9" x2="486.6" y2="358.8"/>
<line x1="501.5" y1="428.2" x2="538.2" y2="360.3"/>
<line x1="501.5" y1="428.2" x2="486.6" y2="358.8"/>
<line x1="313.9" y1="476.6" x2="331.9" y2="358.1"/>
<line x1="501.5" y1="428.2" x2="564" y2="389"/>
<line x1="501.5" y1="428.2" x2="424.4" y2="401.9"/>
<line x1="313.9" y1="476.6" x2="424.4" y2="401.9"/>
<line x1="313.9" y1="476.6" x2="229.3" y2="409.7"/>
<line x1="185.9" y1="494.1" x2="229.3" y2="409.7"/>
<line x1="399.5" y1="466.4" x2="424.4" y2="401.9"/>
<line x1="461.8" y1="478.4" x2="424.4" y2="401.9"/>
<line x1="562.4" y1="459.6" x2="501.5" y2="428.2"/>
<line x1="606.7" y1="538.2" x2="562.4" y2="459.6"/>
<line x1="362.5" y1="538.0" x2="399.5" y2="466.4"/>
<line x1="185.9" y1="494.1" x2="313.9" y2="476.6"/>
<line x1="492.6" y1="538.1" x2="461.8" y2="478.4"/>
<line x1="272.4" y1="538.1" x2="313.9" y2="476.6"/>
</g>
<path d="M630.6 402.1 628.4 402.9 625.4 403.4 621.6 403.6 617.1 403.6 611.9 403.4 606.5 402.8 601.0 401.8 595.4 400.4 589.6 398.6 584.6 396.8 580.2 394.9 576.5 393.0 573.5 391.0 570.9 389.6 568.8 388.7 567.1 388.4 565.9 388.6 564.1 387.6 561.7 385.2 558.8 381.5 555.2 376.5 552.6 372.4 550.7 369.1 549.6 366.8 549.4 365.2 548.8 363.8 547.8 362.4 546.4 361.1 544.6 359.9 543.4 358.7 542.6 357.6 542.4 356.5 542.6 355.5 543.0 354.8 543.5 354.4 544.1 354.4 544.9 354.6 545.5 354.1 546.0 352.7 546.4 350.5 546.6 347.5 547.2 344.5 548.1 341.5 549.2 338.5 550.8 335.5 552.7 332.7 555.1 330.1 557.9 327.6 561.1 325.4 564.1 323.6 566.9 322.4 569.4 321.6 571.6 321.4 573.5 320.9 575.0 320.1 576.1 319.1 576.9 317.9 577.8 317.2 578.9 317.2 580.2 317.9 581.8 319.1 583.8 320.3 586.2 321.4 589.2 322.5 592.8 323.5 595.6 324.1 597.9 324.4 599.5 324.2 600.5 323.8 601.4 323.7 602.1 324.1 602.8 324.9 603.2 326.1 604.6 327.8 606.7 329.9 609.6 332.5 613.4 335.5 616.9 338.9 620.3 342.8 623.5 347.1 626.5 351.9 629.2 356.9 631.6 362.1 633.6 367.6 635.4 373.4 636.7 378.7 637.6 383.6 638.0 388.0 638.0 392.0 637.8 395.2 637.2 397.6 636.5 399.1 635.5 399.9 634.2 400.6 632.6 401.4Z" fill="#E20C18"/>
<g fill="#E20C18">
<circle cx="424.4" cy="401.9" r="18.7"/>
<circle cx="313.9" cy="476.6" r="18.3"/>
<circle cx="501.5" cy="428.2" r="14.7"/>
<circle cx="185.9" cy="494.1" r="14.7"/>
<circle cx="331.9" cy="358.1" r="14.7"/>
<circle cx="562.4" cy="459.6" r="11.7"/>
<circle cx="606.7" cy="538.2" r="11.7"/>
<circle cx="272.4" cy="538.1" r="11.7"/>
<circle cx="362.5" cy="538.0" r="11.7"/>
<circle cx="492.6" cy="538.1" r="11.7"/>
<circle cx="615.1" cy="253.4" r="10.7"/>
<circle cx="681.5" cy="270.8" r="10.7"/>
<circle cx="538.2" cy="360.3" r="9.0"/>
</g>
<g fill="#FAB023">
<circle cx="486.6" cy="358.8" r="14.1"/>
<circle cx="229.3" cy="409.7" r="14.8"/>
<circle cx="399.5" cy="466.4" r="12.6"/>
<circle cx="461.8" cy="478.4" r="12.2"/>
</g>
<circle cx="600.1" cy="361.3" r="14.1" fill="#FFFFFF"/>
<path d="M1176.0 488.5 1176.0 487.5 1175.0 486.5 1173.0 485.5 1172.2 484.5 1172.8 483.5 1172.2 482.8 1170.8 482.2 1170.2 481.5 1170.8 480.5 1170.5 480.0 1169.5 480.0 1169.2 479.5 1169.8 478.5 1169.2 477.5 1167.8 476.5 1167.2 475.2 1167.8 473.8 1167.5 473.2 1166.5 473.8 1166.2 473.2 1166.8 471.8 1166.5 471.0 1165.5 471.0 1165.2 470.2 1165.8 468.8 1165.5 468.0 1164.5 468.0 1164.2 466.8 1164.8 464.2 1164.5 463.2 1163.5 463.8 1163.2 461.5 1163.8 456.5 1163.5 454.8 1162.5 456.2 1162.0 454.2 1162.0 448.8 1162.5 446.8 1163.5 448.2 1163.8 446.5 1163.2 441.5 1163.5 439.5 1164.5 440.5 1164.8 439.5 1164.2 436.5 1164.5 435.2 1165.5 435.8 1165.8 435.0 1165.2 433.0 1165.5 432.2 1166.5 432.8 1166.8 432.2 1166.2 430.8 1166.5 430.0 1167.5 430.0 1168.0 428.8 1168.0 426.2 1168.8 424.8 1170.2 424.2 1170.8 423.5 1170.2 422.5 1170.5 422.0 1171.5 422.0 1171.8 421.5 1171.2 420.5 1171.8 419.8 1173.2 419.2 1173.8 418.5 1173.2 417.5 1174.5 416.0 1177.5 414.0 1179.8 411.8 1181.2 409.2 1182.5 408.2 1183.5 408.8 1184.2 408.2 1184.8 406.8 1185.5 406.2 1186.5 406.8 1187.2 406.2 1187.8 404.8 1188.5 404.2 1189.5 404.8 1190.0 404.5 1190.0 403.5 1192.5 402.0 1197.5 400.0 1200.8 399.2 1202.2 399.8 1203.2 399.5 1203.8 398.5 1206.0 398.2 1210.0 398.8 1211.5 398.5 1210.5 397.5 1213.0 397.0 1219.0 397.0 1221.8 397.5 1221.2 398.5 1222.8 398.8 1226.2 398.2 1228.2 398.5 1228.8 399.5 1229.8 399.8 1231.2 399.2 1232.2 399.5 1232.8 400.5 1233.8 400.8 1235.2 400.2 1236.5 400.8 1237.5 402.2 1238.5 402.8 1239.5 402.2 1240.5 402.8 1241.5 404.2 1243.0 405.0 1245.0 405.0 1246.2 405.8 1246.8 407.2 1247.5 407.8 1248.5 407.2 1252.0 410.5 1258.0 417.5 1260.8 421.8 1260.2 423.2 1260.5 423.8 1261.5 423.2 1261.8 423.8 1261.2 425.2 1261.5 426.0 1262.5 426.0 1263.0 427.0 1263.0 429.0 1261.8 430.0 1259.2 430.0 1258.0 430.5 1258.0 431.5 1253.8 433.2 1245.2 435.8 1240.2 435.8 1238.8 433.2 1238.2 431.5 1238.8 430.5 1238.5 430.0 1237.5 430.0 1235.5 428.2 1232.5 424.8 1230.0 422.8 1228.0 422.2 1227.0 421.5 1227.0 420.5 1226.2 420.2 1224.8 420.8 1224.0 420.5 1224.0 419.5 1221.2 419.0 1215.8 419.0 1211.0 419.5 1207.0 420.5 1203.5 422.2 1200.5 424.8 1198.5 425.8 1197.5 425.2 1196.5 425.5 1195.5 426.5 1195.2 427.5 1195.8 428.5 1194.8 430.2 1192.2 432.8 1190.5 436.2 1189.5 440.8 1188.5 442.5 1187.5 441.5 1187.2 447.0 1187.8 459.0 1188.5 465.0 1189.5 465.0 1190.8 467.0 1192.2 471.0 1194.8 474.5 1198.2 477.5 1200.0 479.5 1200.0 480.5 1200.5 480.8 1201.5 480.2 1203.8 481.0 1207.2 483.0 1213.8 484.0 1223.2 484.0 1227.8 483.5 1227.2 482.5 1228.0 482.0 1230.0 482.0 1231.2 481.2 1231.8 479.8 1232.8 479.0 1234.2 479.0 1236.0 477.0 1238.0 473.0 1239.5 471.0 1240.5 471.0 1241.0 470.0 1241.0 468.0 1245.2 468.0 1253.8 470.0 1257.8 471.5 1257.2 472.5 1258.2 472.8 1260.8 472.2 1262.5 472.2 1263.5 472.8 1264.0 473.8 1264.0 475.2 1262.8 478.5 1260.2 483.5 1258.0 486.5 1256.0 487.5 1255.2 488.5 1255.8 489.5 1254.8 491.2 1252.2 493.8 1250.5 494.8 1249.5 494.2 1248.5 495.0 1247.5 497.0 1246.0 498.0 1244.0 498.0 1242.8 498.8 1242.2 500.2 1241.2 500.8 1239.8 500.2 1238.5 500.8 1237.5 502.2 1236.0 502.8 1234.0 502.2 1233.2 502.5 1233.8 503.5 1233.0 503.8 1231.0 503.2 1230.2 503.5 1230.8 504.5 1229.0 504.8 1225.0 504.2 1223.8 504.5 1225.2 505.5 1221.2 506.0 1211.8 506.0 1207.2 505.5 1207.8 504.5 1206.5 504.2 1203.5 504.8 1202.2 504.5 1202.8 503.5 1202.0 503.2 1200.0 503.8 1199.0 503.5 1199.0 502.5 1198.2 502.2 1196.8 502.8 1196.0 502.5 1196.0 501.5 1195.2 501.2 1193.8 501.8 1193.0 501.5 1193.0 500.5 1192.0 500.0 1190.0 500.0 1188.8 499.2 1188.2 497.8 1187.0 497.0 1185.0 497.0 1183.8 496.2 1183.2 494.8 1182.2 494.0 1180.8 494.0 1179.0 492.8 1177.0 490.2ZM966.0 428.8 968.0 432.2 968.8 435.5 968.2 438.5 968.5 439.5 969.5 438.5 969.8 440.0 969.2 444.0 969.5 445.2 970.5 443.8 971.0 447.2 971.0 455.8 970.8 461.2 970.2 463.8 969.5 464.8 968.5 464.2 968.2 465.2 968.8 467.8 968.5 468.8 967.5 468.2 967.0 469.8 967.0 473.2 965.2 478.0 961.8 484.0 958.0 489.0 954.0 493.0 951.5 494.8 950.5 494.2 949.8 494.8 949.2 496.2 948.5 496.8 947.5 496.2 946.8 496.8 946.2 498.2 945.5 498.8 944.5 498.2 943.5 498.8 942.5 500.2 941.2 500.8 939.8 500.2 939.2 500.5 939.8 501.5 939.2 501.8 937.8 501.2 937.0 501.5 937.0 502.5 936.2 502.8 934.8 502.2 934.0 502.5 934.0 503.5 933.0 503.8 931.0 503.2 930.2 503.5 930.8 504.5 929.2 504.8 925.8 504.2 924.5 504.5 925.5 505.5 921.0 506.0 911.0 506.0 906.5 505.5 907.5 504.5 906.2 504.2 902.8 504.8 901.2 504.5 901.8 503.5 901.0 503.2 899.0 503.8 898.0 503.5 898.0 502.5 897.2 502.2 895.8 502.8 895.0 502.5 895.0 501.5 894.5 501.2 893.5 501.8 893.0 501.5 893.0 500.5 892.2 500.2 890.8 500.8 889.2 500.5 887.8 499.5 887.0 498.5 887.0 497.5 886.0 497.0 884.0 497.0 882.8 496.2 882.2 494.8 881.2 494.0 879.8 494.0 876.2 490.8 870.8 484.2 866.8 478.2 864.2 472.8 863.0 467.8 863.0 463.2 862.5 461.2 861.5 461.8 861.2 455.8 861.8 443.2 862.5 437.2 863.5 437.8 863.8 436.8 863.2 434.2 863.8 432.5 865.2 431.5 865.8 430.2 865.2 428.8 866.5 425.5 869.5 420.5 873.5 415.5 878.5 410.5 881.5 408.2 882.5 408.8 883.2 408.2 883.8 406.8 884.5 406.2 885.5 406.8 886.2 406.2 886.8 404.8 887.5 404.2 888.5 404.8 889.0 404.5 889.0 403.5 890.0 402.5 892.0 401.5 893.8 401.2 895.2 401.8 896.0 401.5 896.0 400.5 896.8 399.8 898.2 399.2 900.2 399.2 902.8 399.8 903.8 399.5 903.2 398.5 905.0 398.2 909.0 398.8 910.8 398.5 910.2 397.5 913.0 397.0 919.0 397.0 921.5 397.5 920.5 398.5 922.2 398.8 926.8 398.2 929.0 398.5 929.0 399.5 930.0 399.8 932.0 399.2 933.0 399.5 933.0 400.5 933.8 400.8 935.2 400.2 936.0 400.5 936.0 401.5 936.8 401.8 938.2 401.2 939.0 401.5 939.0 402.5 939.5 402.8 940.5 402.2 941.0 402.5 941.0 403.5 941.5 403.8 942.5 403.2 943.5 403.8 944.5 405.2 945.5 405.8 946.5 405.2 947.2 405.8 947.8 407.2 948.5 407.8 949.5 407.2 951.0 408.5 953.0 411.5 954.5 412.8 955.5 412.2 957.5 413.8 960.5 417.2 962.0 420.2 962.0 422.8 962.5 423.8 963.5 423.2 964.2 424.0 964.8 426.0ZM824.5 387.5 823.5 386.5 823.2 385.5 823.8 384.5 823.5 384.0 822.5 384.0 822.2 383.5 822.8 382.5 819.8 379.5 813.2 374.5 808.2 371.5 804.8 370.5 798.5 370.2 789.5 370.8 783.0 372.0 779.0 374.0 775.5 376.5 772.5 379.5 770.5 382.5 769.5 385.5 769.2 390.8 769.8 398.2 772.0 403.2 776.0 405.8 778.2 407.8 778.8 409.2 780.2 410.0 782.8 410.0 783.8 410.5 783.2 411.5 784.0 411.8 786.0 411.2 786.8 411.5 786.2 412.5 788.2 413.0 792.8 413.0 795.0 413.5 795.0 414.5 796.2 414.8 798.8 414.2 799.8 414.5 799.2 415.5 801.5 416.0 806.5 416.0 810.0 416.2 812.0 416.8 813.0 417.5 813.0 418.5 814.0 418.8 816.0 418.2 817.0 418.5 817.0 419.5 818.5 420.0 821.5 420.0 822.8 420.5 822.2 421.5 823.0 421.8 825.0 421.2 830.0 423.8 838.0 429.2 843.5 434.2 846.5 438.8 847.8 441.5 847.2 442.5 847.5 443.0 848.5 443.0 848.8 443.5 848.2 444.5 848.5 445.2 849.5 445.8 850.5 447.8 851.5 451.2 852.0 456.8 852.0 464.2 851.8 469.2 851.2 471.8 850.5 473.0 849.5 473.0 849.2 473.8 849.8 475.2 849.5 476.0 848.5 476.0 848.2 476.8 848.8 478.2 848.5 480.0 847.5 482.0 845.2 484.5 841.8 487.5 840.2 489.5 840.8 490.5 839.5 491.8 836.5 493.2 834.8 494.8 834.2 496.2 833.0 497.0 831.0 497.0 830.0 497.5 830.0 498.5 828.8 499.8 826.2 501.2 823.5 502.0 820.5 502.0 819.0 502.5 819.0 503.5 818.0 503.8 816.0 503.2 815.2 503.5 815.8 504.5 814.5 504.8 811.5 504.2 810.2 504.5 810.8 505.5 804.0 506.0 790.0 506.0 783.2 505.5 783.8 504.5 781.5 504.0 776.5 504.0 774.5 503.5 775.5 502.5 775.0 502.2 773.0 502.8 772.0 502.5 772.0 501.5 771.2 501.2 769.8 501.8 769.2 501.5 769.8 500.5 769.2 500.2 767.8 500.8 767.0 500.5 767.0 499.5 766.5 499.2 765.5 499.8 764.5 499.2 763.5 497.8 762.5 497.2 761.5 497.8 760.8 497.2 760.2 495.8 759.5 495.2 758.5 495.8 757.8 495.2 757.2 493.8 756.5 492.5 755.5 491.5 754.5 491.2 753.5 491.8 752.2 491.2 750.8 489.8 750.2 488.5 750.8 487.5 750.0 486.5 748.0 485.5 747.2 484.5 747.8 483.5 747.2 482.8 745.8 482.2 745.2 481.2 745.8 479.8 745.5 479.2 744.5 479.8 744.2 479.2 744.8 477.8 744.5 477.2 743.5 477.8 743.2 477.5 743.8 476.5 743.5 476.0 742.5 476.0 742.2 475.2 742.8 473.8 742.5 473.2 741.5 473.8 741.2 473.0 741.8 471.0 741.5 470.2 740.5 470.8 739.8 469.8 739.2 467.2 739.5 466.5 740.5 467.5 741.0 467.2 741.0 465.8 746.8 463.2 758.2 459.8 763.8 459.0 763.2 461.0 763.5 461.8 764.5 461.2 765.0 461.8 765.0 463.2 766.2 465.8 768.8 469.2 769.8 471.5 769.2 472.5 769.8 473.2 771.2 473.8 772.5 475.0 773.5 477.0 774.5 477.8 775.5 477.2 777.8 478.2 781.2 480.8 784.8 482.2 788.2 482.8 789.5 483.5 788.5 484.5 794.2 484.2 806.8 482.8 814.2 481.2 816.8 479.8 819.2 477.2 821.8 473.8 823.5 472.0 824.5 472.0 824.8 471.5 824.2 470.5 824.5 470.0 825.5 470.0 825.8 469.2 825.2 467.8 825.5 467.2 826.5 467.8 827.0 467.5 827.0 466.5 826.5 463.0 825.5 457.0 823.2 452.2 819.8 448.8 818.0 446.5 818.0 445.5 817.5 445.2 816.5 445.8 816.0 445.5 816.0 444.5 815.5 444.2 814.5 444.8 813.5 444.5 812.5 443.5 809.5 442.5 804.5 441.5 801.8 440.5 801.2 439.5 800.0 439.2 798.0 439.8 797.0 439.5 797.0 438.5 795.8 438.2 793.2 438.8 792.0 438.5 792.0 437.5 790.8 437.2 788.2 437.8 787.2 437.5 787.8 436.5 786.8 436.2 784.2 436.8 783.0 436.5 783.0 435.5 782.0 435.2 780.0 435.8 776.8 435.2 772.2 433.8 769.5 432.2 768.5 430.8 767.5 430.2 766.5 430.8 766.0 430.5 766.0 429.5 765.5 429.2 764.5 429.8 763.5 429.2 762.5 427.8 761.5 427.2 760.5 427.8 759.5 427.0 758.5 425.0 757.5 424.2 756.5 424.8 755.0 424.0 753.0 422.0 752.2 420.5 752.8 419.5 752.5 418.2 751.5 416.8 750.5 416.2 749.5 416.8 749.2 416.5 749.8 415.5 749.2 414.8 747.8 414.2 747.2 413.2 747.8 411.8 747.5 411.2 746.5 411.8 746.0 410.2 746.0 406.8 745.5 405.5 744.5 406.5 744.2 405.8 744.8 403.2 744.5 402.0 743.5 402.0 743.0 397.5 743.0 388.5 743.5 384.2 744.5 384.8 744.8 383.8 744.2 381.2 744.5 380.2 745.5 380.8 745.8 380.0 745.2 378.0 745.5 377.5 746.5 378.5 746.8 378.0 746.2 376.0 746.5 375.2 747.5 375.8 747.8 375.2 747.2 373.8 747.5 373.0 748.5 373.0 749.0 372.0 749.0 370.0 749.8 368.8 751.2 368.2 751.8 367.5 751.2 366.5 752.8 364.2 756.2 360.8 758.5 359.2 759.5 359.8 760.5 359.0 761.5 357.0 762.5 356.2 763.5 356.8 764.0 356.5 764.0 355.5 764.5 355.2 765.5 355.8 766.0 355.5 766.0 354.5 766.5 354.2 767.5 354.8 768.5 354.2 769.5 352.8 770.5 352.2 771.5 352.8 772.0 352.5 772.0 351.5 772.8 351.2 774.2 351.8 775.0 351.5 775.0 350.5 775.8 350.2 777.2 350.8 778.0 350.5 778.0 349.5 779.2 349.2 781.8 349.8 782.8 349.5 782.2 348.5 784.0 348.2 788.0 348.8 789.5 348.5 788.5 347.5 792.2 347.0 800.8 347.0 804.2 347.5 802.8 348.5 804.2 348.8 808.8 348.2 810.8 348.5 810.2 349.5 811.2 349.8 813.8 349.2 815.0 349.5 815.0 350.5 816.5 351.0 819.5 351.0 821.0 351.5 821.0 352.5 821.5 352.8 822.5 352.2 823.0 352.5 823.0 353.5 823.5 353.8 824.5 353.2 825.5 353.8 826.5 355.2 827.5 355.8 828.5 355.2 828.8 355.5 828.2 356.5 829.0 357.0 831.0 357.0 832.2 357.8 832.8 359.2 835.2 361.8 839.8 365.2 843.2 369.2 845.8 373.8 846.8 376.5 846.2 377.5 846.5 378.0 847.5 378.0 848.2 379.5 848.8 382.5 848.5 384.2 847.5 384.8 842.0 386.8 832.0 390.2 826.5 391.8 825.5 391.2 825.0 390.2 825.0 388.8ZM1282.2 484.5 1280.8 483.5 1278.5 479.8 1275.5 473.2 1274.0 467.5 1274.0 462.5 1273.5 460.0 1272.5 460.0 1272.0 455.8 1272.0 447.2 1272.5 443.2 1273.5 443.8 1274.0 441.5 1274.0 436.5 1275.8 430.2 1279.2 422.8 1282.2 418.2 1284.8 416.8 1285.8 415.5 1285.2 414.5 1286.2 412.8 1288.8 410.2 1291.0 408.2 1293.0 406.8 1294.5 406.2 1295.5 406.8 1296.2 406.2 1296.8 404.8 1298.5 403.2 1301.5 401.8 1303.8 401.2 1305.2 401.8 1306.0 401.5 1306.0 400.5 1306.8 399.8 1308.2 399.2 1310.0 399.2 1312.0 399.8 1313.0 399.5 1313.0 398.5 1314.8 398.2 1318.2 398.8 1320.0 398.5 1320.0 397.5 1322.8 397.0 1328.2 397.0 1331.0 397.5 1331.0 398.5 1332.8 398.8 1336.2 398.2 1338.0 398.5 1338.0 399.5 1339.0 399.8 1341.0 399.2 1342.8 399.2 1344.2 399.8 1345.0 400.5 1345.0 401.5 1345.8 401.8 1347.2 401.2 1347.8 401.5 1347.2 402.5 1347.8 402.8 1349.2 402.2 1350.8 402.5 1352.2 403.5 1353.0 404.5 1353.0 405.5 1353.5 405.8 1354.5 405.2 1355.2 405.8 1355.8 407.2 1356.5 407.8 1357.5 407.2 1360.0 409.0 1364.0 413.0 1365.8 415.5 1365.2 416.5 1365.8 417.2 1367.2 417.8 1367.8 418.5 1367.2 419.5 1367.5 420.0 1368.5 420.0 1368.8 420.5 1368.2 421.5 1368.5 422.0 1369.5 422.0 1371.0 424.2 1373.0 428.8 1373.8 432.5 1373.2 435.5 1373.5 436.8 1374.5 436.2 1374.8 437.8 1374.2 441.2 1374.5 443.0 1375.5 443.0 1375.8 446.8 1375.2 454.2 1355.2 458.2 1315.8 458.8 1296.0 459.8 1296.0 461.2 1296.5 462.0 1297.5 462.0 1297.8 463.0 1297.2 465.0 1297.5 466.0 1298.5 466.0 1298.8 466.8 1298.2 468.2 1298.8 469.5 1300.2 470.5 1300.8 471.5 1300.2 472.5 1300.8 473.2 1302.2 473.8 1304.5 475.8 1307.5 479.2 1311.2 482.0 1315.8 484.0 1319.2 485.0 1321.8 485.0 1322.5 485.5 1321.5 486.5 1324.0 487.0 1330.0 487.0 1332.5 486.5 1331.5 485.5 1332.2 485.0 1334.8 485.0 1337.8 484.2 1341.2 482.8 1344.5 480.8 1347.5 478.2 1349.2 476.2 1349.8 474.8 1350.5 474.0 1351.5 474.0 1351.8 473.5 1351.2 472.5 1351.5 472.2 1352.5 472.8 1353.0 472.0 1353.0 470.0 1358.2 470.5 1368.8 473.5 1373.2 477.2 1371.8 481.8 1369.5 485.2 1366.5 487.8 1365.2 489.5 1365.8 490.5 1365.2 491.8 1363.8 493.2 1362.5 493.8 1361.5 493.2 1360.2 494.2 1358.8 496.8 1357.5 497.8 1356.5 497.2 1356.0 497.5 1356.0 498.5 1355.5 498.8 1354.5 498.2 1353.5 498.8 1352.5 500.2 1351.5 500.8 1350.5 500.2 1350.0 500.5 1350.0 501.5 1349.2 501.8 1347.8 501.2 1347.2 501.5 1347.8 502.5 1346.2 503.0 1342.8 503.0 1341.2 503.5 1341.8 504.5 1340.2 504.8 1336.8 504.2 1335.5 504.5 1336.5 505.5 1332.2 506.0 1322.8 506.0 1318.0 505.5 1318.0 504.5 1316.5 504.2 1313.5 504.8 1312.2 504.5 1312.8 503.5 1312.0 503.2 1310.0 503.8 1309.0 503.5 1309.0 502.5 1308.2 502.2 1306.8 502.8 1306.0 502.5 1306.0 501.5 1305.2 501.2 1303.8 501.8 1303.2 501.5 1303.8 500.5 1303.2 500.2 1301.8 500.8 1301.0 500.5 1301.0 499.5 1300.0 499.0 1298.0 499.0 1296.8 498.2 1296.2 496.8 1295.5 496.2 1294.5 496.8 1293.8 496.2 1293.2 494.8 1292.5 494.2 1291.5 494.8 1289.0 493.0 1285.0 489.0 1283.0 486.5 1283.0 485.5ZM1660.5 481.0 1659.5 481.0 1659.2 466.2 1659.8 436.8 1656.0 421.5 1648.0 420.5 1642.8 420.5 1640.2 421.5 1639.0 416.5 1639.0 405.5 1644.2 400.0 1654.8 400.0 1659.8 391.5 1659.2 374.5 1659.5 366.5 1660.5 367.5 1666.5 368.0 1677.5 368.0 1683.0 367.5 1683.0 366.5 1683.2 374.5 1683.8 391.5 1690.2 400.0 1702.8 400.0 1708.8 405.2 1708.2 415.8 1702.0 421.0 1690.0 421.0 1684.0 435.0 1684.0 463.0 1686.5 478.5 1691.5 481.5 1696.5 483.0 1701.5 483.0 1705.2 482.5 1707.8 481.5 1709.0 486.5 1709.0 497.5 1705.5 503.0 1698.5 503.0 1696.0 503.5 1698.0 504.5 1696.0 505.0 1690.0 505.0 1688.0 504.5 1690.0 503.5 1688.5 503.2 1683.5 503.8 1681.2 503.5 1681.8 502.5 1681.0 502.2 1679.0 502.8 1678.2 502.5 1678.8 501.5 1678.2 501.2 1676.8 501.8 1676.0 501.5 1676.0 500.5 1675.5 500.2 1674.5 500.8 1673.0 500.5 1671.0 499.5 1669.8 498.2 1669.2 496.8 1667.5 495.0 1664.5 493.0 1662.2 490.2 1660.8 486.8 1660.2 484.0 1660.8 482.0ZM1351.2 438.8 1351.8 436.2 1351.5 435.2 1350.5 435.8 1349.2 434.2 1347.8 430.8 1347.2 428.5 1347.8 427.5 1347.5 427.0 1346.5 427.0 1345.0 425.8 1343.0 423.2 1338.8 420.8 1332.2 418.2 1325.8 417.2 1319.2 417.8 1314.0 419.0 1310.0 421.0 1306.5 423.8 1303.5 427.2 1301.5 429.0 1300.5 429.0 1300.2 429.5 1300.8 430.5 1300.2 431.5 1298.8 432.5 1298.2 433.8 1298.8 435.2 1298.5 435.8 1297.5 435.2 1297.2 436.2 1297.8 438.8 1297.5 439.8 1296.5 439.2 1296.0 439.5 1296.0 440.5 1309.8 440.8 1337.2 440.2ZM1455.5 388.5 1454.5 387.5 1454.2 386.0 1454.8 384.0 1454.2 383.0 1452.8 383.0 1450.0 388.8 1446.0 400.2 1443.5 405.8 1442.5 405.2 1442.2 406.0 1442.8 408.0 1439.5 418.0 1432.5 436.0 1440.8 445.0 1464.2 445.0 1475.5 444.2 1474.5 442.8 1474.2 441.0 1474.8 439.0 1474.5 438.2 1473.5 438.8 1471.0 433.5 1467.0 422.5 1465.2 416.2 1465.8 414.8 1465.5 414.0 1464.5 414.0 1463.0 411.2 1461.0 405.8 1460.2 402.2 1460.8 400.8 1460.5 400.2 1459.5 400.8 1459.2 400.0 1459.8 398.0 1459.5 397.2 1458.5 397.8 1458.2 397.2 1458.8 395.8 1458.5 395.0 1457.5 395.0 1457.2 394.2 1457.8 392.8 1457.5 392.0 1456.5 392.0 1456.0 391.2 1456.0 389.8ZM1618.8 502.0 1610.2 502.0 1606.0 485.2 1606.0 451.8 1605.5 435.2 1604.5 435.8 1604.2 435.0 1604.8 433.0 1604.5 432.2 1603.5 432.8 1603.2 432.2 1603.8 430.8 1603.5 430.0 1602.5 430.0 1602.0 429.2 1602.0 427.8 1598.2 425.0 1590.8 421.0 1584.2 419.2 1578.8 419.8 1574.2 420.8 1570.8 422.2 1567.2 424.5 1563.8 427.5 1562.2 429.5 1562.8 430.5 1562.2 432.0 1560.8 434.0 1560.0 436.0 1560.0 438.0 1559.5 438.8 1558.5 438.2 1558.2 454.2 1558.8 486.8 1552.8 502.8 1540.2 502.2 1534.0 476.5 1534.0 425.5 1539.8 400.0 1551.2 400.0 1556.8 403.5 1556.2 410.5 1557.5 413.5 1560.5 412.5 1561.8 411.5 1561.2 410.5 1562.2 408.8 1564.8 406.2 1566.5 405.2 1567.5 405.8 1568.2 405.2 1568.8 403.8 1569.5 403.2 1570.5 403.8 1571.2 403.2 1571.8 401.8 1573.2 401.0 1575.8 401.0 1577.0 400.5 1577.0 399.5 1578.0 398.8 1580.0 398.2 1582.0 398.2 1584.0 398.8 1585.5 398.5 1586.5 397.5 1589.2 397.0 1593.8 397.0 1595.8 397.5 1595.2 398.5 1596.8 398.8 1600.2 398.2 1601.8 398.5 1601.2 399.5 1602.0 399.8 1604.0 399.2 1605.0 399.5 1605.0 400.5 1605.8 400.8 1607.2 400.2 1608.5 400.8 1609.5 402.2 1611.0 403.0 1613.0 403.0 1614.2 403.8 1614.8 405.2 1615.8 406.0 1617.2 406.0 1618.8 406.8 1620.2 408.2 1622.8 412.0 1626.2 418.0 1628.8 424.8 1630.2 432.2 1631.0 452.8 1631.0 486.2 1629.0 502.8 1625.0 502.2ZM1388.2 502.2 1382.8 502.8 1380.2 502.2 1380.8 500.8 1381.5 500.2 1382.5 500.8 1382.8 500.2 1382.2 498.8 1382.5 498.0 1383.5 498.0 1384.0 496.5 1384.0 493.5 1384.5 492.2 1385.5 492.8 1386.0 491.5 1386.0 488.5 1386.5 487.2 1387.5 487.8 1387.8 487.0 1387.2 485.0 1387.5 484.2 1388.5 484.8 1388.8 484.2 1388.2 482.8 1388.5 482.0 1389.5 482.0 1389.8 481.2 1389.2 479.8 1389.5 479.2 1390.5 479.8 1391.0 478.5 1391.0 475.5 1391.5 474.2 1392.5 474.8 1392.8 474.2 1392.2 472.8 1392.5 472.0 1393.5 472.0 1394.0 470.5 1394.0 467.5 1394.5 466.2 1395.5 466.8 1396.0 465.5 1396.0 462.5 1396.8 460.5 1398.2 459.5 1398.8 458.2 1398.2 456.8 1398.5 456.2 1399.5 456.8 1399.8 456.2 1399.2 454.8 1399.5 454.0 1400.5 454.0 1400.8 453.2 1400.2 451.8 1400.5 451.2 1401.5 451.8 1401.8 451.0 1401.2 449.0 1401.5 448.2 1402.5 448.8 1402.8 448.2 1402.2 446.8 1402.5 446.0 1403.5 446.0 1403.8 445.2 1403.2 443.8 1403.5 443.2 1404.5 443.8 1405.0 442.5 1405.0 439.5 1405.5 438.2 1406.5 438.8 1406.8 438.0 1406.2 436.0 1406.5 435.2 1407.5 435.8 1408.0 434.5 1408.0 431.5 1408.5 430.2 1409.5 430.8 1409.8 430.2 1409.2 428.8 1409.5 428.0 1410.5 428.0 1411.0 426.5 1411.0 423.5 1411.5 422.2 1412.5 422.8 1412.8 422.2 1412.2 420.8 1412.5 420.0 1413.5 420.0 1413.8 419.2 1413.2 417.8 1413.5 417.2 1414.5 417.8 1415.0 416.5 1415.0 413.5 1415.5 412.2 1416.5 412.8 1417.0 411.5 1417.0 408.5 1417.5 407.0 1418.5 407.0 1419.0 405.8 1419.0 403.2 1419.8 401.5 1421.2 400.5 1422.0 398.5 1422.0 395.5 1422.5 394.2 1423.5 394.8 1424.0 393.5 1424.0 390.5 1424.5 389.2 1425.5 389.8 1425.8 389.0 1425.2 387.0 1425.5 386.2 1426.5 386.8 1426.8 386.2 1426.2 384.8 1426.5 384.0 1427.5 384.0 1427.8 383.2 1427.2 381.8 1427.8 380.5 1429.2 379.5 1430.0 377.8 1430.0 375.2 1430.5 374.0 1431.5 374.0 1431.8 373.2 1431.2 371.8 1431.5 371.2 1432.5 371.8 1432.8 371.2 1432.2 369.8 1432.5 369.0 1433.5 369.0 1433.8 368.2 1433.2 366.8 1433.8 365.5 1435.2 364.5 1436.0 362.8 1436.0 360.2 1436.5 359.0 1437.5 359.0 1437.8 358.2 1437.2 356.8 1437.5 356.0 1438.5 356.0 1439.0 354.8 1439.0 352.2 1446.2 351.2 1460.8 351.8 1468.8 354.0 1470.2 358.0 1470.8 360.8 1470.2 362.2 1470.5 363.0 1471.5 363.0 1473.0 365.5 1475.0 370.5 1475.8 373.8 1475.2 375.2 1475.5 376.0 1476.5 376.0 1477.2 377.5 1477.8 380.5 1479.0 383.8 1481.0 387.2 1482.5 390.5 1483.5 393.5 1483.8 395.5 1483.2 396.5 1483.5 397.0 1484.5 397.0 1484.8 397.8 1484.2 399.2 1484.5 400.0 1485.5 400.0 1486.0 401.2 1486.0 403.8 1486.5 405.0 1487.5 405.0 1488.5 406.5 1489.5 409.5 1489.8 411.5 1489.2 412.5 1489.5 413.0 1490.5 413.0 1490.8 413.8 1490.2 415.2 1490.8 416.5 1492.2 417.5 1492.8 418.8 1492.2 420.2 1492.5 421.0 1493.5 421.0 1494.0 422.5 1494.0 425.5 1494.5 426.8 1495.5 426.2 1495.8 426.8 1495.2 428.2 1495.5 429.0 1496.5 429.0 1497.5 430.2 1498.5 432.8 1499.0 435.5 1499.0 438.5 1499.5 439.8 1500.5 439.2 1500.8 439.8 1500.2 441.2 1500.5 442.0 1501.5 442.0 1502.0 443.5 1502.0 446.5 1502.5 447.8 1503.5 447.2 1504.0 448.2 1504.0 450.8 1504.5 452.0 1505.5 452.0 1506.0 453.2 1506.0 455.8 1506.5 457.2 1507.5 457.8 1507.8 458.5 1507.2 459.5 1507.5 460.0 1508.5 460.0 1508.8 460.8 1508.2 462.2 1508.5 463.0 1509.5 463.0 1509.8 463.8 1509.2 465.2 1509.5 465.8 1510.5 465.2 1510.8 465.8 1510.2 467.2 1510.5 468.0 1511.5 468.0 1511.8 468.5 1511.2 469.5 1511.8 470.8 1513.2 472.2 1514.0 474.2 1514.0 476.8 1514.5 478.0 1515.5 478.0 1515.8 478.8 1515.2 480.2 1515.5 481.0 1516.5 481.0 1516.8 481.8 1516.2 483.2 1516.5 483.8 1517.5 483.2 1518.0 484.5 1518.0 487.5 1518.5 489.0 1519.5 489.0 1520.0 490.2 1520.0 492.8 1520.5 494.0 1521.5 494.0 1521.8 494.8 1521.2 496.2 1521.5 497.0 1522.5 497.0 1522.8 497.5 1522.2 498.5 1522.5 499.0 1523.5 499.0 1524.2 500.0 1524.8 502.0 1517.8 502.8 1503.2 502.2 1493.0 493.2 1487.0 475.8 1481.8 466.8 1477.2 466.2 1461.5 466.0 1434.5 466.0 1418.5 473.2 1413.5 487.8 1410.5 494.8 1409.5 494.2 1409.2 495.0 1409.8 497.0 1409.5 499.2 1408.5 501.8 1403.8 502.8 1395.2 502.2ZM1146.2 399.0 1154.8 399.0 1159.2 405.0 1159.8 417.0 1156.0 422.5 1148.0 421.5 1144.0 421.5 1144.0 422.5 1142.2 423.0 1138.8 423.0 1137.0 423.5 1137.0 424.5 1136.5 424.8 1135.5 424.2 1135.0 424.5 1135.0 425.5 1134.5 425.8 1133.5 425.2 1132.5 426.0 1131.5 428.0 1130.0 429.2 1128.0 429.8 1127.2 430.5 1127.8 431.5 1127.5 432.2 1126.5 432.8 1125.8 434.0 1125.2 436.0 1124.5 436.8 1123.5 436.2 1123.2 437.0 1123.8 439.0 1123.5 439.5 1122.5 438.5 1122.2 439.2 1122.8 441.8 1122.5 442.8 1121.5 442.2 1121.2 457.2 1121.8 487.8 1115.8 502.8 1103.2 502.2 1097.0 477.2 1097.0 427.8 1097.8 402.8 1099.2 402.2 1099.2 401.5 1097.8 400.5 1102.8 400.0 1114.2 400.0 1119.8 404.2 1119.2 412.8 1120.2 417.0 1122.8 417.0 1123.8 416.0 1123.2 414.0 1124.0 412.5 1126.0 411.5 1126.8 410.5 1126.2 409.5 1127.0 408.0 1129.0 406.0 1130.5 405.2 1131.5 405.8 1132.2 405.2 1132.8 403.8 1133.5 403.2 1134.5 403.8 1135.0 403.5 1135.0 402.5 1135.5 402.2 1136.5 402.8 1137.5 402.2 1138.5 400.8 1139.8 400.2 1141.2 400.8 1142.0 400.5 1142.0 399.5ZM1008.0 468.0 1010.0 472.0 1010.8 474.5 1010.2 475.5 1010.5 476.0 1011.5 476.0 1013.0 477.5 1015.0 480.5 1016.5 481.8 1017.5 481.2 1019.2 481.5 1021.8 482.5 1022.8 483.5 1022.2 484.5 1025.8 485.0 1033.2 485.0 1036.5 484.5 1035.5 483.5 1036.5 483.0 1039.5 483.0 1041.2 482.2 1041.8 480.8 1043.8 479.0 1047.2 477.0 1048.8 475.5 1048.2 474.5 1048.8 473.8 1050.2 473.2 1050.8 472.5 1050.2 471.5 1050.8 469.2 1052.2 465.8 1053.0 448.0 1053.0 416.0 1059.2 400.2 1071.8 400.8 1078.0 426.5 1078.0 477.5 1072.0 503.0 1060.0 503.0 1053.8 499.8 1053.2 493.2 1053.0 490.5 1053.0 491.5 1051.5 493.0 1048.5 495.0 1046.5 497.0 1045.5 499.0 1044.0 500.0 1042.0 500.0 1040.8 500.8 1040.2 502.2 1039.2 502.8 1037.8 502.2 1037.0 502.5 1037.0 503.5 1036.2 503.8 1034.8 503.2 1034.0 503.5 1034.0 504.5 1032.8 504.8 1030.2 504.2 1029.2 504.5 1029.8 505.5 1026.0 506.0 1018.0 506.0 1014.5 505.5 1015.5 504.5 1014.5 504.2 1011.5 504.8 1010.2 504.5 1010.8 503.5 1009.2 503.0 1005.8 503.0 1004.0 502.5 1004.0 501.5 1003.0 501.0 1001.0 501.0 999.8 500.2 999.2 498.8 998.5 498.2 997.5 498.8 996.5 498.0 995.5 496.0 993.8 494.2 991.2 492.8 990.2 491.5 990.8 490.5 990.2 489.8 988.8 489.2 988.2 488.5 988.8 487.5 988.5 487.0 987.5 487.0 987.2 486.5 987.8 485.5 987.2 484.5 985.8 483.5 985.2 482.2 985.8 480.8 985.5 480.0 984.5 480.0 984.2 479.0 984.8 477.0 984.5 476.2 983.5 476.8 983.2 475.0 983.8 471.0 983.5 469.8 982.5 471.2 982.0 454.0 982.0 418.0 988.2 400.2 1000.8 400.8 1007.0 417.2 1007.0 449.8ZM946.2 455.0 946.8 449.0 946.5 446.2 945.5 446.8 945.0 444.8 945.0 440.2 944.5 438.0 943.5 438.0 943.2 437.2 943.8 435.8 943.5 435.2 942.5 435.8 942.2 435.2 942.8 433.8 942.5 433.2 941.5 433.8 941.2 433.5 941.8 432.5 941.0 431.5 939.0 430.5 938.2 429.5 938.8 428.5 938.5 428.0 937.5 428.0 936.8 427.2 936.2 425.8 935.5 425.2 934.5 425.8 933.5 425.2 932.5 423.8 930.2 422.2 926.8 420.8 921.8 419.8 915.2 419.2 909.5 419.8 904.5 421.2 899.0 424.5 893.0 429.5 890.2 432.5 890.8 433.5 890.2 434.5 888.8 435.5 888.2 436.5 888.8 437.5 888.5 438.0 887.5 438.0 887.2 439.0 887.8 441.0 887.5 441.8 886.5 441.2 886.2 442.5 886.8 445.5 886.5 446.5 885.5 445.5 885.0 447.2 885.0 451.8 885.5 454.8 886.5 456.2 886.8 458.0 886.2 460.0 886.5 461.2 887.5 461.8 887.8 462.8 887.2 464.2 887.5 465.0 888.5 465.0 888.8 465.8 888.2 467.2 888.5 467.8 889.5 467.2 889.8 467.8 889.2 469.2 889.5 469.8 890.5 469.2 890.8 469.8 890.2 471.2 890.5 471.8 891.5 471.2 891.8 471.5 891.2 472.5 891.5 473.0 892.5 473.0 894.2 474.5 896.8 477.5 899.8 479.8 903.2 481.2 904.8 482.5 904.2 483.5 905.0 483.8 907.0 483.2 907.8 483.5 907.2 484.5 911.2 485.0 919.8 485.0 924.0 484.5 924.0 483.5 926.2 482.2 930.8 480.8 934.8 478.2 938.2 474.8 940.0 472.5 940.0 471.5 940.8 470.8 942.2 470.2 942.8 469.5 942.2 468.5 942.5 468.2 943.5 468.8 943.8 468.0 943.2 466.0 943.5 465.2 944.5 465.8 944.8 465.0 944.2 463.0 944.5 462.2 945.5 462.8 945.8 461.5 945.2 458.5 945.2 457.2 945.8 457.8Z" fill="#F4F4F5" fill-rule="evenodd"/>
</svg>